<svg xmlns="http://www.w3.org/2000/svg" viewBox="0 0 259.54 88.11"><defs><style>.cls-1{fill:#010101;}.cls-2{fill:#020202;}.cls-3{fill:#030303;}.cls-4{fill:#f6f6f6;}.cls-5{fill:#080808;}.cls-6{fill:#070707;}.cls-7{fill:#f3f3f3;}.cls-8{fill:#f4f4f4;}.cls-9{fill:#0b0b0b;}.cls-10{fill:#0c0c0c;}.cls-11{fill:#0e0e0e;}.cls-12{fill:#131313;}.cls-13{fill:#0a0a0a;}.cls-14{fill:#161616;}.cls-15{fill:#1b1b1b;}.cls-16{fill:#a4a4a4;}.cls-17{fill:#bbb;}.cls-18{fill:#363636;}.cls-19{fill:#353535;}.cls-20{fill:#e6e6e6;}.cls-21{fill:#cacaca;}.cls-22{fill:#cfcfcf;}.cls-23{fill:#fdfdfd;}.cls-24{fill:#f7f7f7;}.cls-25{fill:#f0f0f0;}.cls-26{fill:#f9f9f9;}.cls-27{fill:#f5f5f5;}</style></defs><g id="Laag_2" data-name="Laag 2"><g id="Laag_1-2" data-name="Laag 1"><path class="cls-1" d="M103.61,56.91c0-1.7,0-3.4,0-5.1,0-1.41-.51-2.24-2-2.38-.49,0-1.06.08-1-.77s.61-.69,1.1-.69c2.88,0,5.75,0,8.63,0,.47,0,1.1-.2,1.21.61s-.42.79-1,.87c-1.59.23-2.15,1.22-2.13,2.75,0,3.2,0,6.4,0,9.6,0,3.72,2.19,5.8,6.06,5.91s6.73-2.09,6.86-5.65c.13-3.26,0-6.53,0-9.79a2.59,2.59,0,0,0-2.4-2.83c-.48-.07-1.11.08-1.06-.77s.63-.7,1.12-.7H126c.43,0,.94-.12,1,.56s-.31.9-.89.94c-2.06.15-2.52,1.52-2.51,3.27,0,2.28-.11,4.57,0,6.85.5,8.94-5.21,11-11.7,10.45-5.8-.53-8.33-3.41-8.35-9.22C103.61,59.52,103.61,58.21,103.61,56.91Z"/><path class="cls-1" d="M103.61,27.35c0-1.7,0-3.4,0-5.1A1.93,1.93,0,0,0,101.73,20c-.46-.06-1.09.17-1.07-.72s.52-.75,1-.75h8.84c.44,0,1-.09,1,.58s-.36.82-.93.89c-1.73.22-2.18,1.35-2.16,2.93,0,3.14,0,6.28,0,9.42,0,3.65,2.1,5.72,5.86,5.92s6.81-1.88,7-5.29.09-6.93,0-10.39a2.44,2.44,0,0,0-2.4-2.59c-.5-.06-1.1,0-1-.8s.67-.67,1.16-.67q3.33,0,6.68,0c.47,0,1.09-.21,1.19.61s-.4.83-.94.89c-1.91.19-2.48,1.4-2.46,3.12,0,2.35-.1,4.71,0,7.06.48,9-5.37,10.94-11.6,10.39-5.95-.53-8.44-3.38-8.46-9.34Z"/><path class="cls-1" d="M191.08,28.07a24.09,24.09,0,0,1,4.73-2.24c2.78-.72,4.41.28,5.06,3.06.57,2.46.17,5,.3,7.42.07,1.14-.17,2.47,1.51,2.75.39.07.48.39.42.74s-.42.44-.74.45h-6.67c-.32,0-.67,0-.77-.4s.06-.79.53-.87c1.32-.21,1.39-1.18,1.39-2.21,0-1.83,0-3.66,0-5.49s-.92-3-2.38-3c-2.13.06-3.36,1.17-3.37,3.06,0,1.57-.05,3.14,0,4.71.06,1.24-.19,2.75,1.75,2.94.38,0,.49.39.43.75s-.4.45-.72.46H185.1c-.35,0-.65-.07-.68-.51s.15-.64.54-.66c1.93-.09,1.82-1.44,1.81-2.8q0-7.05,0-14.11c0-1.08.1-2.13-1.36-2.37-.38-.06-.76-.31-.66-.81s.41-.48.73-.58c1.43-.42,2.88-.82,4.3-1.28,1.12-.36,1.34.11,1.32,1.13C191.05,21.43,191.08,24.62,191.08,28.07Z"/><path class="cls-1" d="M133.34,57.46c1.47-.7,2.77-1.44,4.16-2,3.29-1.24,5.17-.14,5.74,3.29a51.65,51.65,0,0,1,.18,7c0,1.11-.15,2.3,1.41,2.57.47.09.62.43.51.89s-.48.37-.78.38q-3.24,0-6.48,0c-.36,0-.83.12-.91-.46a.74.74,0,0,1,.5-.93c1.06-.37,1.2-1.31,1.29-2.22a22,22,0,0,0-.11-6.43c-.26-1.29-1-2.09-2.32-1.78s-3,.41-3.16,2.28c-.14,2.08-.05,4.18,0,6.27a1.76,1.76,0,0,0,1.33,1.92c.48.13,1.16.13,1,.91s-.86.42-1.32.43c-2.16,0-4.32,0-6.47,0-.44,0-1,.13-1-.56-.06-.53.34-.66.73-.73,1.15-.2,1.42-1,1.43-2,0-2.22,0-4.44,0-6.66,0-1.14-.6-1.63-1.59-1.89-.36-.1-.81-.23-.75-.75s.43-.57.82-.7c1.3-.42,2.62-.8,3.88-1.34,1.47-.62,2.23-.45,2,1.36A7.35,7.35,0,0,0,133.34,57.46Z"/><path class="cls-1" d="M44.13,36.46c2.1,0,4.19,0,6.28,0,.93,0,1.26.25,1.24,1.21,0,3.52,0,7.05,0,10.58a3.3,3.3,0,0,1-3.46,3.45c-1.22.06-2.49-.2-3.37,1a.9.9,0,0,1-1.26.07c-1-1.31-2.4-1-3.75-1.13a3.26,3.26,0,0,1-3.19-3.49c0-3.4,0-6.8,0-10.19,0-1.16.23-1.63,1.5-1.56C40.07,36.54,42.1,36.46,44.13,36.46Z"/><path class="cls-1" d="M252.27,64.42c1-2,1.86-3.59,2.59-5.24.46-1,.54-2.1-1-2.42-.51-.11-.89-.28-.81-.87s.69-.46,1.09-.46c1.44,0,2.88,0,4.32,0,.45,0,1-.09,1,.58,0,.45-.22.67-.66.82-1.48.48-1.94,1.87-2.54,3.07-2.43,4.9-4.81,9.83-7.23,14.74a5.42,5.42,0,0,1-2,2.6,2.55,2.55,0,0,1-2.78,0,1.88,1.88,0,0,1-.85-2,2,2,0,0,1,2-1.78A4,4,0,0,0,249,71.25a3.62,3.62,0,0,0,.06-4c-1.4-2.5-2.56-5.13-3.86-7.68-.61-1.2-1.08-2.56-2.64-2.94a.62.62,0,0,1-.47-.75c.06-.56.5-.5.88-.5,2.35,0,4.71,0,7.07,0,.4,0,.83,0,.89.52s-.32.69-.72.76c-1.3.26-1.12,1-.69,1.89C250.36,60.4,251.22,62.21,252.27,64.42Z"/><path class="cls-1" d="M43.88,25.61C42.44,17.47,41,9.33,39.54,1.2c-.12-.68,0-.9.71-1a33,33,0,0,1,7.63,0c.65.08.87.22.74,1-1.46,8.14-2.88,16.28-4.32,24.41Z"/><path class="cls-1" d="M44.28,62.6Q45.57,69.77,46.84,77c.57,3.2,1,6.42,1.68,9.61.22,1.09.08,1.56-1.1,1.55-2.29,0-4.57,0-6.85,0-.94,0-1.16-.35-1-1.33,1.47-8,2.87-16.11,4.29-24.17Z"/><path d="M59.59,33.52c3.82-3.94,7.53-7.78,11.27-11.6,1.83-1.86,3.77-3.63,5.57-5.53.81-.85,1.33-1.07,2.06.05,1.2,1.86,2.46,3.68,3.76,5.48.64.88.41,1.26-.52,1.68-7.19,3.25-14.35,6.55-21.52,9.83A2.84,2.84,0,0,1,59.59,33.52Z"/><path d="M28.7,33.44c-.54.38-.93-.08-1.28-.24C20.48,30,13.56,26.82,6.61,23.69c-1.13-.51-1.33-1-.61-1.94C7.3,20,8.54,18.12,9.82,16.31c.39-.54.71-1.07,1.49-.3C17,21.67,22.77,27.29,28.5,32.93,28.62,33.05,28.63,33.27,28.7,33.44Z"/><path class="cls-1" d="M39.82,62.1c-.3,4.84-.59,9.69-.91,14.53-.22,3.32-.47,6.63-.7,9.94,0,.66-.1,1.6-1,1.06s-2.9.7-2.59-1.57c.19-1.35.57-2.67.85-4,.11-.52.28-1-.47-1.25s-.76.5-.88.92c-.39,1.31-.69,2.65-1.07,4-.61,2.06-1.8.25-2.69.3-.73,0-1.45-.28-.9-1.5,3.37-7.46,6.64-15,9.94-22.44Z"/><path class="cls-1" d="M52.64,60.75c.88.11,1.08.74,1.42,1.18q6.8,8.73,13.56,17.5c.51.66,1.48,1.44-.07,2-1,.37-2.08,2.34-3.06-.1-.47-1.14-1.2-2.17-1.77-3.27-.25-.47-.53-.74-1.07-.47s-.36.75-.16,1.16a32.1,32.1,0,0,0,1.68,3.31c1.46,2.27-.88,2-1.74,2.56-1.4,1-1.37-.42-1.61-1.16Q56.52,73.26,53.26,63C53,62.3,52.86,61.56,52.64,60.75Z"/><path class="cls-1" d="M79.83,70.12c-2.3,2.73-2.33,2.77-4.87.15-5-5.2-10-10.44-15-15.61.32-.22.89.43,1.46.69,6.4,2.91,12.78,5.86,19.16,8.79,2.33,1.07,2.33,1.07,1,3.28-.21.33-.38.68-.57,1-1.27.31-1.93-.81-2.86-1.27a9.93,9.93,0,0,0-2.06-1.12,11.79,11.79,0,0,0,2.58,2.3C79.18,68.84,80.06,69.11,79.83,70.12Z"/><path d="M85.73,29.38C86.86,33,86.86,33,83.05,33.66,76.5,34.87,70,36.13,63.42,37.38A5.24,5.24,0,0,1,61,37.5L81.47,25.38c2.07-1.23,2.07-1.24,3,.95.15.35.33.69.5,1,.09,1-.72,1.11-1.32,1.41a15.48,15.48,0,0,0-3.12,1.51,18.59,18.59,0,0,0,3.17-.86C84.39,29.26,85.05,28.78,85.73,29.38Z"/><path d="M162.34,32.93c-1.11,0-2.23.09-3.33,0-1.51-.17-1.38.5-1,1.56,1.18,3.55,4.1,4.39,7,2,.43-.36.79-1.41,1.52-.69s-.26,1.23-.67,1.68c-1.9,2.05-4.18,3.41-7.08,3.05-3.85-.48-6.1-3.79-5.6-8,.53-4.47,3.69-7.23,7.91-6.91,2.92.22,4.57,1.62,5.37,4.53s.75,2.78-2.28,2.78Z"/><path class="cls-1" d="M183.84,62.35a26.2,26.2,0,0,1-2.94,0c-1.62-.2-1.92.33-1.32,1.81,1.39,3.43,4.06,4.11,6.93,1.73.42-.35.75-1.38,1.52-.62s-.26,1.1-.59,1.55A6.29,6.29,0,0,1,186.18,68c-3,2.42-6.67,2.67-9.18.66s-3.19-6.44-1.56-9.71a7.3,7.3,0,0,1,8.45-3.7,4.89,4.89,0,0,1,3.94,4.12c.14,1,1.38,1.92.73,2.66s-2.07.21-3.15.3C184.89,62.39,184.36,62.35,183.84,62.35Z"/><path class="cls-1" d="M73.16,10.94c.85.81,1.66,1.65,2.55,2.41s1,1.11,0,1.88C69.59,20,63.52,24.87,57.44,29.69c-.28.23-.55.63-1.13.25l11.8-19.21.22-.33c1.37-2.2,1.37-2.2,3.5-.62C72,11.3,70.71,12,70,12.91c-1.39,1.8-1.46,1.77.54,3.19C69.5,14,70.44,12.19,73.16,10.94Z"/><path class="cls-1" d="M35.64,60.64c-1.28,4-2.5,7.84-3.71,11.66S29.47,80,28.26,83.82c-.25.76-.36,1.51-1.52.87-.86-.47-1.63-.68-.88-1.9a22.37,22.37,0,0,0,1.49-3.17c.19-.46,1-1.05.17-1.46-1-.5-1.92-1.46-3.13-1.37a.54.54,0,0,0-.08,1c2.56.82,1.32,2.23.56,3.48-.38.63-.36,2-1.4,1.69a15.76,15.76,0,0,1-3.67-2.17c-.25-.16.12-.57.32-.83q7.36-9.51,14.73-19C35,60.84,35.18,60.82,35.64,60.64Z"/><path class="cls-1" d="M26,46.44,8.92,51.67c-2.18.66-4.39,1.23-6.54,2-1.34.49-2-.38-1.51-1.11.67-1,.63-2.83,2.55-2.79a15.56,15.56,0,0,0,2.52-.34c.53-.08.56-.44.49-.86s-.31-.51-.69-.48a5.19,5.19,0,0,0-1.55.13c-1.87.86-2.77-.79-4-1.52-.26-.16-.2-1-.14-1.48.1-.73.73-.4,1.11-.38q12.42.63,24.83,1.31Z"/><path class="cls-1" d="M14.67,77.11,11.19,74l20-15.89.43.44L18.51,80l-1.88-1.23c-.54-.64-.25-1.21.17-1.75l1.32-1.68c1.47-1.84,1.47-1.84-.67-3.46.72,1.07,1.47,2,.43,2.83S16.74,77.65,14.67,77.11Z"/><path class="cls-1" d="M74.75,75.22c-.12-.15-.32-.44-.35-.42-2,1.13-2.61-.78-3.67-1.73-.41-.36-.66-1.35-1.51-.65s.15,1.1.42,1.55a11.84,11.84,0,0,0,1.25,1.5c.5.58,1.28,1.11.13,1.82a.45.45,0,0,0-.14.68c.93,1.09-.21,1.39-.76,1.69-1,.54-1-.58-1.24-1-3.79-6.08-7.54-12.19-11.3-18.3a7.23,7.23,0,0,1-1-2C63.52,63.14,70,68.58,76.66,73.76L75.52,75.2A.48.48,0,0,1,74.75,75.22Z"/><path class="cls-1" d="M63,50.85c7.51,1.4,15,2.79,22.52,4.22.38.07,1.24-.13,1,.76a2.54,2.54,0,0,1-1,1.48c-1.86,1.52-3.3.39-4.91-.12-.42-.13-.86-.37-1.11.27s.18.89.69,1.09a10.05,10.05,0,0,0,2,.79c2,.3,1.08,2.28,1.87,3.31.24.32-.34,1.61-1.62.83-6.74-4.1-13.52-8.12-20.28-12.17C62.14,50.53,62.61,50.73,63,50.85Z"/><path class="cls-1" d="M31.93,1.9c-.41,2.05.15,3.37,2.53,3.19a.72.72,0,0,1,.86.6c0,.66-.51.81-1,.9s-1.43-.1-1.23.79,1.1.43,1.64.32C35.9,7.46,37,6.9,36.9,5.43c-.09-1.28-1-1.68-2.23-1.67-.5,0-1.18.14-1.24-.58s.56-.9,1.08-.88c.81,0,1.13-.29,1.31-1.06.23-1,1.18-.52,1.8-.69s.54.41.57.77c.56,8.31,1.11,16.62,1.33,25-1.17-2.63-2.36-5.26-3.53-7.9L30,4.88C28.9,2.4,28.89,2.4,31.93,1.9Z"/><path class="cls-1" d="M26,51.28Q15.88,57.36,5.72,63.45c-.79.48-1.24.52-1.55-.45-.22-.68-.57-1.32-.91-2.1.91.11,1.75.65,2.57,0s.66-1.51.6-2.34c0-.5,0-1,.53-1.11s.88.42,1,1,.06,1.39.95,1.09.28-1.06.14-1.5c-.35-1.15-.9-2.26-2.42-2.07S5,57.16,5.13,58.39c0,.47.25,1.17-.51,1.25s-.88-.52-1-1c-.1-.75-.25-1-1.2-1-.78,0-.69-1.1-.91-1.75-.34-1,.58-.69.92-.76C8.36,54,14.26,52.83,20.15,51.71c1.67-.32,3.35-.57,5-.86C25.59,50.73,26.05,50.53,26,51.28Z"/><path class="cls-1" d="M53.19,1.15c-1.74,1.89-1.7,2.42.23,3.76.42.3,1.08.46.77,1.13s-.81.43-1.36.29-1.14-.87-1.44.07.69.87,1.2,1.08a2.23,2.23,0,0,0,2.84-.55c.9-1.16.45-2-.65-2.78-.48-.33-1.49-.47-1.07-1.32.29-.56,1.09-.35,1.61-.06s.87.1,1.21-.43c.67-1,1.35.06,2,.15.88.13.33.78.14,1.2q-5,11.27-10,22.51a1.83,1.83,0,0,1-.38,0c.34-5.18.66-10.36,1-15.54.17-2.54.39-5.07.59-7.61C50.15.14,50.15.14,53.19,1.15Z"/><path class="cls-1" d="M87.69,51.35C87,54,87,54,84.29,53.21,76.9,51,69.51,48.7,62.15,46.15c7.53-.4,15.06-.81,22.58-1.18,3.47-.18,3.48-.15,3.32,3.45-.36.27-.6,0-.83-.2-1-.93-1.85-.62-2.55.45-.38.57-.64,1.41-1.57,1.16s-.79-1.16-1-1.91A1.81,1.81,0,0,0,82,49.28a1.53,1.53,0,0,0,1.08,1.26c.68.19,1.08-.26,1.44-.75s.74-1.58,1.68-1.36.7,1.27.87,2A1.38,1.38,0,0,0,87.69,51.35Z"/><path class="cls-1" d="M3.26,27.37c1.36-3.26,1.36-3.26,4.33-1.48q8.75,5.2,17.49,10.41a4,4,0,0,1,1.83,1.45c-4.18-.77-8.13-1.48-12.08-2.23C11,34.8,7.28,33.93,3.48,33.36c-1.86-.28-2.41-.82-1.48-2.52a11.46,11.46,0,0,0,.58-1.56C4,30.56,5.41,31.76,6.79,33c.26.21.52.77.92.34a.88.88,0,0,0,.09-1.23c-1.21-1.45-1-2.44,1-2.8.77-.14.73-.79,1.18-1.53H4.48C4.13,27.42,3.6,27.73,3.26,27.37Z"/><path class="cls-1" d="M.54,37.56C.73,34.11.73,34.12,4,35.11L25.17,41.5a1,1,0,0,1,.65.57l-8.22.46c-5.48.29-11,.59-16.44.86-.45,0-1.26.49-1.15-.66.07-.74,0-1.44,1.12-1.28A33.91,33.91,0,0,0,5,41.67c.54,0,1.24.24,1.33-.69s-.62-.61-1.06-.71-1.08.13-1.18-.43.54-.83,1-1c.81-.32,1.93-.31,1.55-1.76a2.63,2.63,0,0,0-1.55.48c-.72.35-1.22.83-1.92-.3-.56-.91-1.69-.89-2.36.28C.78,37.7.67,37.71.54,37.56Z"/><path class="cls-1" d="M62.32,41.71Q74.19,38.1,86.05,34.5c.45-.14,1-.45,1.23.39.11.54.09,1-.54,1.27a27.81,27.81,0,0,0-3.29,1.73c-.68.43-1.87.35-1.75,1.74.14,1.55,1.45,1,2.23,1.35a24,24,0,0,0,2.84.7c.62.18,1.58,0,1.39,1.18s-1,.53-1.55.5c-6.53-.31-13-.7-19.58-1-1.54-.08-3.1,0-4.65,0Z"/><path class="cls-1" d="M28.25,54.66a1,1,0,0,1-.4,1.26Q19.69,64,11.51,72c-.31.31-.6,1-1.23.44s-.63-1-.12-1.65c.92-1.18,1.69-2.47,2.58-3.68a1.2,1.2,0,0,0,.14-1.57c-.42-.67-.93-.6-1.52-.45-1.51.38-3,.75-4.54,1.17a.91.91,0,0,1-1.24-.56c-.35-.69.24-.79.57-.94C13.48,61.4,20.81,58.06,28.25,54.66Z"/><path class="cls-2" d="M166.86,65.22c1-2.23,1.85-4.19,2.73-6.14.55-1.23.24-2-1.13-2.29-.53-.1-1.11-.1-1-.87s.8-.48,1.25-.49c1.5,0,3,0,4.51,0,.46,0,1.14-.23,1.2.59,0,.62-.45.69-.92.77-1.21.2-1.64,1.19-2.07,2.14-1.44,3.2-2.87,6.41-4.25,9.63-.34.77-.64,1.28-1.65,1.29a1.65,1.65,0,0,1-1.7-1.23c-1.44-3.19-2.93-6.37-4.43-9.54-.47-1-.86-2.09-2.16-2.32a.67.67,0,0,1-.57-.86c.09-.5.53-.48.93-.48h7c.39,0,.81,0,.82.56s-.34.61-.77.63c-1.5.06-1.28.91-.85,1.87Z"/><path class="cls-1" d="M145.39,28.54c2.22-3.26,2.75-3.42,5.53-2.19.79.35.88.67.61,1.45-.78,2.31-1,2.49-3.41,2a2.09,2.09,0,0,0-2.72,2.17c-.05,1.5.06,3,0,4.51s.49,2.48,2.14,2.6c.43,0,1.16-.21,1.07.69-.07.72-.65.5-1.05.5q-3.93,0-7.86,0c-.35,0-.82.13-.88-.48a.63.63,0,0,1,.62-.79c1.51-.2,1.59-1.39,1.63-2.5.07-1.76,0-3.52,0-5.29,0-1.2-.3-2.21-1.6-2.6-.42-.12-.71-.31-.69-.79s.46-.6.8-.73c1.34-.53,2.7-1,4-1.53s2-.34,1.8,1.25A15.88,15.88,0,0,0,145.39,28.54Z"/><path class="cls-1" d="M178.49,25.61a6.88,6.88,0,0,1,3.91,1.11c1,.73,1.54,1.71.79,2.87s-1.92,1-2.92.35a18.19,18.19,0,0,1-2-1.86,2.07,2.07,0,0,0-3.46.42c-1.54,2.23-1.17,7.07.69,9a3.76,3.76,0,0,0,4.84.54,12.61,12.61,0,0,0,1.84-1.43.71.71,0,0,1,1,0c.5.36.13.65-.07,1-1.92,3.07-7.64,4-11,1.87a7.19,7.19,0,0,1-1.67-10A9.26,9.26,0,0,1,178.49,25.61Z"/><path class="cls-1" d="M197,58.11c2.33-3.42,3-3.62,5.78-2.25.64.31.65.56.5,1.16-.59,2.3-1.19,2.71-3.46,2.19A2.15,2.15,0,0,0,197,61.3c-.07,1.3,0,2.62,0,3.92-.12,1.87.24,3.28,2.52,3.27.44,0,.81.11.74.65-.05.38-.31.53-.69.53h-8.24c-.34,0-.66,0-.7-.47s0-.68.44-.75c1.7-.31,1.61-1.62,1.62-2.87,0-1.5,0-3,0-4.51,0-1.34,0-2.56-1.62-3.14-.88-.31-.64-1.07.14-1.39,1.56-.64,3.17-1.18,4.76-1.77.78-.29,1.08,0,1,.8S197,57,197,58.11Z"/><path class="cls-1" d="M210.88,69.94c-1.41.09-2.79-.63-4.24,0-.6.24-.69-.38-.73-.85-.09-.84-.23-1.68-.26-2.53,0-.37-.38-1,.37-1.09.54-.09.83.19,1,.66a3.71,3.71,0,0,0,2.75,2.26,1.76,1.76,0,0,0,2.11-1c.4-.82-.11-1.41-.68-1.84-1.05-.77-2.19-1.42-3.24-2.18-2.07-1.5-2.81-3.14-2.3-5s2.07-3,4.6-3.28a9.77,9.77,0,0,1,1.95,0c2.73.31,2.89.49,2.78,3.2,0,.41.23,1-.36,1.17s-.92-.22-1.15-.73a3.16,3.16,0,0,0-2.21-2c-.83-.17-1.62-.15-2.06.68a1.4,1.4,0,0,0,.63,1.86c1.17.82,2.44,1.49,3.63,2.29a4.65,4.65,0,0,1,2.2,5.54C215.12,69,213.44,70,210.88,69.94Z"/><path class="cls-1" d="M15.34,14.05a8.58,8.58,0,0,1,3.5.86,1.43,1.43,0,0,0,1.71-.49c.5-.59-.19-.93-.44-1.3-.77-1.12-1.58-2.23-2.45-3.29-.49-.59-.2-.88.25-1.25s.77-.08,1,.31q6.33,10.32,12.64,20.65c.05.09,0,.25-.11.72L26.9,26.64Q19.76,21,12.64,15.32c-.45-.37-1.51-.67-.58-1.6s1.1.26,1.47.56c1,.78,1.8,1.71,2.7,2.56.34.32.63.95,1.24.31s-.11-.9-.38-1.24C16.6,15.32,16,14.79,15.34,14.05Z"/><path class="cls-1" d="M239.43,65.9a1,1,0,0,1,.31,1.38,5.89,5.89,0,0,1-5.9,2.6c-2.09-.51-2.81-1.64-2.82-4.45,0-2,0-4.05,0-6.07,0-1,.37-2.14-1.42-2-.73,0-.59-.75-.08-1.06A11.09,11.09,0,0,0,234,51.51a.71.71,0,0,1,.83-.37c.53.1.46.52.5.91.09,1.08-.5,2.51.29,3.17s2,.14,3,.21c.39,0,1.07-.25,1,.5,0,.53-.06,1.21-.77,1.43a1.67,1.67,0,0,1-.39,0c-1,.14-2.46-.51-2.93.31s-.21,2.27-.22,3.43q0,2.06,0,4.11c0,.77-.18,1.68.71,2.08a2.27,2.27,0,0,0,2.51-.63Z"/><path class="cls-1" d="M214.66,36.37c.58.55.77,1,.36,1.62a6,6,0,0,1-6,2.43c-2-.52-2.7-1.74-2.7-4.59,0-2.22,0-4.44,0-6.66,0-.73,0-1.32-1-1.22-.37,0-.84,0-.87-.52s.4-.62.73-.82a10.34,10.34,0,0,0,4-4.2c.22-.42.45-.83,1-.71s.36.71.45,1.11a1.33,1.33,0,0,1,0,.2c.09,2.93.09,2.9,2.91,3,.5,0,1.46-.5,1.41.69,0,1-.59,1.26-1.56,1.28-2.76.05-2.76.1-2.76,2.92,0,1.56,0,3.13,0,4.7,0,.84-.2,1.82.75,2.26a2.29,2.29,0,0,0,2.65-.74A7.43,7.43,0,0,0,214.66,36.37Z"/><path class="cls-1" d="M128.23,32.72c0-1.24,0-2.48,0-3.72,0-.43.11-.94-.58-1-.47,0-1.19.21-1.2-.6,0-.51.58-.63,1-.88a11.36,11.36,0,0,0,3.72-3.95c.21-.39.33-.93.93-.83.8.14.47.82.49,1.27.14,2.91.13,2.89,3.16,3,.45,0,1.34-.45,1.26.61-.05.72-.23,1.29-1.26,1.37-3.15.22-3.15.28-3.14,3.57,0,1.43,0,2.87,0,4.31,0,.79,0,1.65.88,2a2.22,2.22,0,0,0,2.35-.52c.34-.27.55-1.14,1.18-.61s.15,1.05-.23,1.52a6,6,0,0,1-4.56,2.34c-2.3.07-3.75-1.42-3.92-4-.09-1.3,0-2.61,0-3.92Z"/><path class="cls-1" d="M48.77,62c2.56,5.84,5.1,11.7,7.72,17.52.62,1.39.5,2.23-1.13,2.53-.33.06-.72.22-.84-.17-.75-2.4-2.26-.24-3.36-.55a.58.58,0,0,0-.65.75c.11.66.54.61,1,.47a1.7,1.7,0,0,1,.37-.1c.45,0,1.05-.53,1.26.33s-.53.68-.94.88-1.21,0-1,.83c.16.72.68.36,1.11.31s1.28-.51,1.47.37-.81.53-1.22.8-1.36-.09-1.16.9c.17.82-.35.87-.89.89-.82,0-.49-.62-.51-1q-.84-11.82-1.63-23.64C48.37,62.66,47.79,62,48.77,62Z"/><path class="cls-1" d="M21.9,6.25c-.46,2.67.42,4.48,2.39,5a3.65,3.65,0,0,0,4.07-2.58c.42-1.89-.85-3.52-3.27-4.2,2.73-1.54,2.72-1.54,3.61,1.29q3.18,10.07,6.38,20.11c.18.58.64,1.14.18,2L24.58,14,20.86,9.18C19.32,7.18,19.31,7.18,21.9,6.25Z"/><path class="cls-1" d="M66.13,10.56,52.72,28.13,52.41,28c1.31-4.16,2.62-8.33,3.94-12.48,1.11-3.48,2.41-6.9,3.32-10.43.51-2,1.25-2,2.69-1.1.26.18.54.32.86.51-2.33.52-3.41,1.58-3.46,3.39s1.1,2.7,2.6,3.27,2.39-.18,3.37-1C66.08,10.07,66.29,10.15,66.13,10.56Z"/><path class="cls-1" d="M154.16,60.64v4.57c0,1.39-.11,2.82,1.74,3.21a.61.61,0,0,1,.47.74c0,.44-.34.5-.68.5h-7.44c-.32,0-.66,0-.74-.44s.17-.71.62-.77c1.55-.22,1.74-1.3,1.72-2.58,0-1.69-.07-3.39,0-5.08.07-1.46.05-2.76-1.79-3.09-.31-.06-.62-.27-.55-.67a.76.76,0,0,1,.66-.62l.38-.1c1.8-.52,3.48-1.44,5.38-1.58C154.46,56.84,154,59,154.16,60.64Z"/><path class="cls-1" d="M223.07,69.67h-3.53c-.35,0-.67,0-.78-.43s.16-.76.59-.82c1.62-.24,1.61-1.41,1.59-2.64,0-1.64,0-3.27,0-4.9,0-1.38.22-2.71-1.67-3.2-.89-.23-.79-1,.12-1.29,1.6-.56,3.21-1.06,4.81-1.61,1-.34,1.07.21,1.07,1,0,3.14,0,6.27,0,9.41,0,1.36-.15,2.84,1.72,3.24a.61.61,0,0,1,.48.73c-.05.59-.5.51-.87.52C225.42,69.68,224.24,69.67,223.07,69.67Z"/><path class="cls-3" d="M223.13,46.79a2.46,2.46,0,0,1,2.65,2.52,2.62,2.62,0,0,1-2.88,2.32,2.68,2.68,0,0,1-2.74-2.51A2.9,2.9,0,0,1,223.13,46.79Z"/><path class="cls-3" d="M151.84,46.79a2.56,2.56,0,0,1,2.84,2.36,2.59,2.59,0,0,1-2.74,2.48,2.69,2.69,0,0,1-2.89-2.35A2.73,2.73,0,0,1,151.84,46.79Z"/><path class="cls-4" d="M87.69,51.35c-1.11.22-1.41-.25-1.11-1.27.15-.51.25-1.14-.31-1.38s-.82.38-1,.85c-.54,1.27-1.26,2.21-2.81,1.4-1.09-.58-1.39-2.66-.66-3.85.21-.35.35-.46.73-.29s.48.51.32.94c-.26.68-.53,1.58.37,1.82s.85-.79,1.15-1.33c1-1.78,2.08-1.73,3.69.18A6.33,6.33,0,0,1,87.69,51.35Z"/><path class="cls-4" d="M14.67,77.11C16.36,76.63,17,75,18,73.86c.58-.65-.62-.92-.92-1.43s-.77-.59-.32-1.13.86,0,1.22.25c2.29,1.9,2.23,1.86.49,4.19-.7.93-2,1.55-1.84,3Z"/><path class="cls-4" d="M73.16,10.94c-.61.67-1.21,1.34-1.83,2-.91,1-2,1.89-.11,3,.33.19.61.5.27.94s-.75.38-1.14,0a15,15,0,0,0-1.72-1.57c-.72-.51-.44-.89,0-1.39,1.1-1.36,2.17-2.74,3.24-4.11A1.67,1.67,0,0,1,73.16,10.94Z"/><path class="cls-5" d="M26.89,7.9c0,1.5-.71,2.12-1.69,2.07-1.4-.09-2-1.13-2-2.46A1.5,1.5,0,0,1,25,5.9,2.05,2.05,0,0,1,26.89,7.9Z"/><path class="cls-6" d="M65,7.71c-.17,1.13-.66,2.16-2,2.25A1.54,1.54,0,0,1,61.24,8.3c.06-1.26.6-2.38,2.06-2.41A1.6,1.6,0,0,1,65,7.71Z"/><path class="cls-7" d="M79.83,70.12c-.74-1.29-2.23-1.7-3.2-2.7-.53-.55-2.14-.69-1.3-1.86s1.39.33,2,.65c1.26.64,2.43,1.47,3.63,2.23A3.82,3.82,0,0,1,79.83,70.12Z"/><path class="cls-8" d="M85.73,29.38c-1.62.21-3,1-4.59,1.45-.49.13-1.19,1-1.63-.09s.55-1,1.06-1.23c1.45-.76,3.21-.9,4.44-2.14Z"/><path class="cls-9" d="M8.63,70.41,6.85,67.79l5-1.48Z"/><path class="cls-10" d="M83.1,39.43l4.33-2c.15.19.27.27.29.37.46,2.63.45,2.64-2.27,2.13C84.78,39.82,84.12,39.66,83.1,39.43Z"/><path class="cls-10" d="M66.13,10.56l-.4-.44c.88-1.87.88-1.87.49-3.81,2.59.72,2.66.86,1.16,2.78C67,9.6,66.55,10.07,66.13,10.56Z"/><path class="cls-11" d="M17.85,12.79c-1.4.28-2.41-.6-3.61-.8.24-1,1.32-1.8,1.67-1.67A3.62,3.62,0,0,1,17.85,12.79Z"/><path class="cls-12" d="M57.76,82.8c1.62,2.86,1.62,2.86-.85,3.36C56.88,85.06,57.42,84.15,57.76,82.8Z"/><path class="cls-13" d="M2.28,38.19c.57.06.76.46.77,1,0,.66-.33.88-1,.82s-.86-.13-.74-.78S1.63,38.21,2.28,38.19Z"/><path class="cls-14" d="M4.29,29.13c.73-.16,1.49-.46,2.08.16a.92.92,0,0,1-.2.86C5.23,30.6,5,29.48,4.29,29.13Z"/><path class="cls-15" d="M55.77,85.4c-.58-.69-1.13-1.36-.44-2.19a.8.8,0,0,1,.7-.12C56.71,83.94,55.55,84.56,55.77,85.4Z"/><path class="cls-16" d="M48.77,62c-.52.24-.2.77-.39,1.13-.4-.35-.28-.83-.31-1.26,0-.22,0-.59.33-.47C48.57,61.41,48.65,61.75,48.77,62Z"/><path class="cls-17" d="M.54,37.56a.85.85,0,0,0,.32,0L.33,39.2A1.15,1.15,0,0,1,.54,37.56Z"/><path class="cls-18" d="M63,50.85c-.28.16-.7.07-.87.46a1.48,1.48,0,0,1-1.09-.7A2.09,2.09,0,0,1,63,50.85Z"/><path class="cls-19" d="M26,51.28l-.86-.43A2.05,2.05,0,0,1,27,50.57C26.89,51.11,26.44,51.17,26,51.28Z"/><path class="cls-20" d="M74.75,75.22l.77,0a1.74,1.74,0,0,1-1.23,1.13C74.11,75.8,74.7,75.6,74.75,75.22Z"/><path class="cls-21" d="M3.26,27.37l1.22.36C4.11,27.49,3.34,28.61,3.26,27.37Z"/><path class="cls-22" d="M.49,49a4.23,4.23,0,0,1-.1,1c-.49.07-.22-.36-.26-.59a1.42,1.42,0,0,1,.11-.51Z"/><path class="cls-23" d="M38.47,38c3.58,0,7,0,10.36,0,1,0,1.4.24,1.38,1.3-.06,2.81,0,5.61,0,8.42,0,.51.07,1.16-.4,1.43-.63.35-.88-.4-1.2-.72-3.31-3.26-6.58-6.54-9.86-9.82A3,3,0,0,1,38.47,38Z"/><path class="cls-24" d="M44,4.8c-.83-.16-1.47-.61-1.44-1.52a1.42,1.42,0,0,1,1.67-1.46,1.35,1.35,0,0,1,1.35,1.56A1.49,1.49,0,0,1,44,4.8Z"/><path class="cls-25" d="M44.12,86.5c-.85-.12-1.5-.54-1.56-1.45a1.41,1.41,0,0,1,1.37-1.6,1.4,1.4,0,0,1,1.66,1.48C45.64,85.85,45,86.29,44.12,86.5Z"/><path class="cls-26" d="M77.67,22.44c-.86-.15-1.43-.57-1.41-1.52a1.34,1.34,0,0,1,1.63-1.44A1.31,1.31,0,0,1,79.21,21,1.43,1.43,0,0,1,77.67,22.44Z"/><path class="cls-4" d="M10.39,22.43a1.43,1.43,0,0,1-1.47-1.36,1.37,1.37,0,0,1,1.31-1.6,1.39,1.39,0,0,1,1.7,1.41C12,21.8,11.42,22.3,10.39,22.43Z"/><path class="cls-4" d="M159.94,31.61c-.76-.52-2.25.75-2.37-1.09-.1-1.51,1.08-3.09,2.29-3.15s2.5,1.47,2.42,3.22S160.66,31,159.94,31.61Z"/><path class="cls-27" d="M181.34,61c-.75-.52-2.32.76-2.3-1.19,0-1.57,1.24-3.06,2.44-3.05s2.54,1.7,2.34,3.32S182.1,60.44,181.34,61Z"/></g></g></svg>